<?xml version="1.0" encoding="UTF-8"?>
<!DOCTYPE svg PUBLIC "-//W3C//DTD SVG 1.1//EN" "http://www.w3.org/Graphics/SVG/1.1/DTD/svg11.dtd">
<!-- Creator: CorelDRAW -->
<svg xmlns="http://www.w3.org/2000/svg" xml:space="preserve" width="114.736mm" height="22.2638mm" version="1.1" shape-rendering="geometricPrecision" text-rendering="geometricPrecision" image-rendering="optimizeQuality" fill-rule="evenodd" clip-rule="evenodd"
viewBox="0 0 11823666 2294312"
 xmlns:xlink="http://www.w3.org/1999/xlink"
 xmlns:xodm="http://www.corel.com/coreldraw/odm/2003">
 <g id="Layer_x0020_1">
  <metadata id="CorelCorpID_0Corel-Layer"/>
  <path fill="#FEFEFE" d="M9723399 1737949c3050,9852 15499,34089 18343,44034 6729,23568 10109,45878 10109,70456 0,132730 -27628,224353 -112893,326198 -29978,35800 -85553,67766 -129412,83585 -125238,45178 -179330,38273 -306000,6399 -50650,-12747 -101856,-19817 -154103,-20219 -36192,-268 -70518,3133 -106411,6286 -26422,2329 -57637,5008 -81668,-8347 -30689,-17055 -37129,-50526 -37129,-82843 0,-76557 95601,-99537 156844,-99537 53947,0 107616,3586 160832,12613 36841,6245 72074,15210 108142,24660 63243,16581 103979,24341 170107,9182 71425,-16375 123785,-66262 150001,-133812 20054,-51660 17684,-135317 -1721,-188429l-31410 -35996 29493 -10357c13242,-4648 26835,-8357 40283,-12387 21053,-6307 43003,-13088 63449,-21115 6276,-2463 12407,-5122 18807,-7317l34337 36944zm-6319854 -931532c1979,3174 3452,6255 4050,9254 938,4689 -216,9172 -2401,13428 -27546,13036 -49032,39211 -49032,73795l0 769453c0,136007 166335,116572 166335,16385l0 -777645c0,-48857 -21620,-76042 -49279,-86336 -495,-2247 -660,-4514 -412,-6770 402,-3730 1958,-7451 4163,-11181 30173,-13520 53721,-44714 53721,-92808 0,-125331 -182720,-106895 -182720,-8172 0,53082 24516,86336 55576,100599zm3016711 -886l0 928255 -18127 9594c-27546,14582 -40334,31554 -76268,25052 -33955,-6142 -63768,-35882 -63768,-71528 0,-203423 -3329,-407042 -3792,-610527 -268,-118777 -247,-237708 1834,-356465 752,-42663 1700,-85471 3803,-128103 1123,-22888 2061,-52762 7245,-74990l4071 -17519 16766 -6503c30483,-11841 61285,-16138 90345,1783 22414,13819 39293,39056 54700,59996 145220,197271 303723,384587 450087,581044 48496,65097 98228,129659 147971,193808 31121,40138 62439,80236 94436,119684 -690,-147600 -2762,-295283 -3019,-442914 -185,-103216 -93,-206587 1906,-309803 721,-37366 1639,-74856 3607,-112192 1092,-20816 2092,-47146 6812,-67396l4812 -20631 20631 -4812c13407,-3122 36449,-10614 49815,-10006 11119,505 27937,7286 39510,10058l20456 4905 4782 20487c5142,22074 6090,51567 7224,74279 2102,42066 3050,84296 3792,126403 2082,117004 2102,234174 1834,351199 -453,200600 -3782,401323 -3782,601850 0,29648 -14644,65396 -40922,80947 -21187,12552 -45054,10655 -66365,-443 -24547,-12799 -45621,-37201 -61480,-58791l-698914 -896721zm-5446155 696719l0 -188759 -219705 0c-127516,0 -119344,-166335 8193,-166335l261946 0c47249,0 107730,17251 107730,74980l0 311060c0,50361 -56410,97961 -93869,124321 -62264,43838 -137996,76423 -211162,96683 -198405,54947 -406784,27875 -570069,-103268 -26958,-21661 -57163,-44518 -80689,-69879 -23176,-24990 -44219,-56101 -64623,-83502 -22620,-30380 -37603,-60079 -54019,-93993 -48135,-99475 -57832,-186657 -57832,-296025 0,-82132 24495,-179371 60687,-252609 22723,-46002 48321,-95714 82255,-134595 25814,-29586 58069,-54957 86841,-81792 186348,-173806 497305,-203423 719267,-83152 27030,14644 56575,30338 80607,49660 19734,15849 37871,32770 58131,48486 32049,24866 55596,62748 41458,104185 -10274,30091 -39603,53226 -71682,54205 -27102,824 -50207,-17230 -70116,-33481 -24093,-19662 -46672,-39087 -72651,-56482 -87965,-58894 -186409,-79700 -291367,-79700 -178433,0 -356114,131998 -423633,293490 -84791,202815 -36089,424550 131432,568111 169200,145014 396490,156762 585104,40901 22383,-13747 36264,-30586 57771,-42509zm6636438 -131452c16849,98867 93859,186677 184132,226177 35872,15695 82936,24949 122260,24949 70930,0 133297,-15138 190892,-57276 32853,-24032 73331,-70569 111378,-80730l14912 -3978 12830 8584c45270,30318 74073,74053 42220,125929 -24475,39881 -85368,78195 -124424,103196 -95024,60831 -164047,62439 -272364,62439 -247591,0 -459712,-243170 -459712,-484279 0,-126671 55411,-248003 141943,-339059 76948,-80978 187079,-145209 301394,-145209 105267,0 176341,-1206 272632,50351 49382,26433 82575,57801 121765,96569 64005,63325 113666,154546 132874,242562 7296,33430 11552,73331 3122,106905 -8935,35594 -33399,62872 -71992,62872l-723863 0zm-989 -149981l630344 0c-10697,-60470 -47290,-126217 -89634,-163398 -68261,-59935 -142221,-87728 -233329,-87728 -106060,0 -235915,68055 -278815,168509 -13778,32255 -24124,53535 -28566,82616zm-5524628 429281c-107091,98476 -200898,129989 -356413,129989 -113398,0 -254320,-67499 -326600,-153691 -127392,-151887 -171993,-339224 -89242,-524572 60749,-136038 176640,-236956 320747,-275734 143581,-38644 294180,-9893 414565,77103l1092 793 46713 39737 1309 1391c88294,94024 148435,201754 148435,334329l0 401096c0,50887 -27772,77762 -74393,90201l-6224 1659 -6399 -721c-52855,-5987 -69199,-57451 -72744,-103051 -484,-6245 -752,-12407 -845,-18529zm-315481 -28174c73403,0 177351,-39871 225548,-96641 90160,-106184 122930,-242985 60790,-371737 -52876,-109533 -163522,-183854 -286338,-183854 -127114,0 -236204,57812 -295829,171745 -46579,89036 -56678,208359 -6719,298220 16158,29060 41571,68849 65695,91499 65819,61820 146972,90768 236853,90768zm9084863 -350673c0,-58791 19405,-133276 43962,-186317 16395,-35429 64180,-104216 92633,-130514l608 -556 18436 -15458c4606,-3864 9213,-7791 13891,-11562 195468,-157782 482125,-162398 660888,23805 92437,96270 141098,228671 138862,361607 -2113,125609 -50248,251548 -148847,332577 -44199,36326 -72610,67416 -127433,90613 -188151,79648 -387133,59100 -538422,-84049l-783 -763 -28906 -29174 -381 -402c-95549,-102886 -124506,-211966 -124506,-349807zm158153 24557c0,45198 11387,92344 29741,133565 52484,117911 167273,192551 296375,192551 137522,0 253805,-76783 303847,-205206 48517,-124517 19745,-262915 -75763,-356753 -94127,-92478 -230948,-115108 -351899,-65293 -124898,51433 -202300,165789 -202300,301136zm-6436621 -32739c0,-99506 59079,-228011 129525,-297705 197518,-195395 499397,-215624 700326,-15200 184575,184101 189594,509825 -443,691824 -205464,196766 -485072,182061 -690526,-6956 -105679,-97219 -138882,-232710 -138882,-371963zm158163 32739c0,283071 350920,435835 554179,235864 77010,-75763 98053,-145096 98053,-252228 0,-112645 -60759,-209204 -157153,-264770 -93066,-53659 -209740,-62161 -306660,-13355 -116901,58863 -188419,161729 -188419,294490zm-2270270 -309164c-48228,1494 -95972,5091 -144808,1886 -28834,-1896 -62047,-6296 -88140,-19312 -31307,-15612 -49526,-43230 -44899,-78886 8409,-64912 79174,-78504 133080,-81606 48187,-2772 96641,783 144952,2247l0 -202764c0,-121807 166335,-104030 166335,-8193l0 211523 285194 0c123538,0 123538,174528 0,174528l-285328 0c-742,127124 -2937,388699 36954,466451 74640,145447 238491,210286 385123,130195 29483,-16117 65963,-59017 100640,-59017 43807,0 90747,24588 92767,73074 2494,60048 -68910,107338 -114366,132658 -149373,83193 -334463,70188 -471336,-31997 -113119,-84440 -164820,-199126 -185307,-335576 -18323,-122023 -12057,-250940 -10862,-375210zm1516152 11181l-84780 55308c-88737,85460 -102474,155195 -102474,275415 0,113964 88892,221210 189779,266624 83605,37624 164604,40417 247838,1412 29596,-13871 56256,-31410 83018,-50000 19137,-13294 45198,-33079 67890,-38366l14396 -3349 12273 8213c45198,30266 74578,75619 41736,126949 -23949,37428 -78216,67880 -116706,88480 -100279,53659 -153567,51577 -263213,51577 -105133,0 -218603,-61522 -292944,-133122 -1587,-1525 -3174,-3050 -4720,-4617l-464 -464 -20013 -21837c-81761,-89211 -121518,-202331 -123270,-322530 -1958,-133791 52329,-260266 148466,-352858 86893,-83678 203794,-130226 323828,-135080 110450,-4462 226434,26989 309999,101722 33852,30266 72497,78803 44601,125640 -12263,20590 -41798,39159 -66241,39159 -52020,0 -90427,-52123 -133493,-73228 -83101,-40705 -191541,-45878 -275507,-5050zm6393556 -9306c29102,-27793 65984,-47909 101949,-64768 30946,-14510 75567,-28081 109337,-33924 55658,-9625 108492,28896 108492,86738 0,52000 -31492,70425 -76217,82946 -45528,12747 -77556,22537 -116551,51711 -134822,100877 -126475,236894 -126475,389235 0,41777 1463,83389 1999,125135 340,26814 773,58904 -5925,84935 -17797,69127 -79009,65592 -136089,52288l-20631 -4802 -4812 -20641c-4204,-18065 -5606,-39304 -6843,-57832 -1937,-29194 -2906,-58543 -3648,-87789 -1979,-77732 -2102,-155649 -1896,-233401 340,-135430 3318,-270984 3318,-406341 0,-48681 47651,-74980 91355,-74980 51629,0 73383,43189 80081,87728 1185,7894 2009,15818 2556,23764z"/>
  <path fill="black" d="M8995796 1647614c12789,4679 25959,8347 39211,11233 89562,19477 194890,15262 286585,15262 91695,0 197013,4215 286575,-15262 16097,-3504 32059,-8151 47352,-14376 -1525,-4184 -2751,-8502 -3658,-12912 -3164,-15406 -2432,-31472 2587,-46414 4318,-12840 11521,-24104 21002,-33399 -7883,-10480 -13221,-22548 -15880,-35481 -3174,-15406 -2432,-31472 2587,-46425 3576,-10625 9130,-20177 16323,-28432 -9553,-11315 -15921,-24753 -18910,-39283 -3174,-15406 -2432,-31482 2587,-46425 5771,-17179 16736,-31544 31389,-42148 20734,-14994 46012,-19064 70920,-21414 8687,-814 17457,-1422 26237,-1896 93,-48403 -2195,-97693 -8502,-145024 -8368,-62789 -26185,-131761 -60367,-185874 -14448,-22888 -35975,-49413 -63181,-57266 -19188,-5534 -36047,62 -52577,10429 -14778,9264 -32451,27144 -45167,39366 -16148,15499 -34131,34223 -52165,47228 -30524,22012 -134389,24959 -172157,25619 -47538,814 -148219,711 -187151,-27360 -19178,-13829 -37892,-29153 -56585,-43704 -17622,-13706 -36892,-29328 -55751,-41148 -16529,-10367 -33389,-15963 -52566,-10429 -27216,7853 -48733,34378 -63191,57266 -34182,54112 -51989,123084 -60367,185874 -6296,47249 -8584,96446 -8502,144777 10893,495 21754,1175 32523,2154 25248,2288 51227,6204 72497,21012 15025,10470 26422,24784 32482,42127 5287,15149 6070,31482 2721,47146 -3092,14468 -9604,27793 -19240,38984 7214,8100 12850,17498 16519,28009 5287,15149 6070,31482 2721,47146 -2741,12840 -8172,24763 -16086,35099 9563,9161 16921,20280 21373,33049 5287,15149 6070,31492 2721,47156 -1154,5420 -2803,10686 -4905,15736z"/>
  <path fill="#FEFEFE" d="M8745546 1670440c14520,804 33079,1401 52175,1721 52432,67808 124445,106112 207391,124156 102083,22197 212389,18477 316481,18477 104092,0 214388,3720 316481,-18477 82925,-18034 154917,-56328 207360,-124125 19528,-289 38706,-917 53515,-1772 30957,-1762 42807,-4483 53504,-10006 10697,-5524 20229,-13860 26350,-24433 6132,-10573 8842,-23393 8821,-34017 -10,-10625 -2762,-19054 -8203,-25856 -5431,-6801 -13562,-11975 -29153,-15056 -11253,-2226 -26391,-3370 -47465,-3854l556 -1886 3298 -185c30957,-1762 42807,-4483 53504,-10006 10697,-5524 20229,-13860 26350,-24433 6132,-10573 8842,-23393 8821,-34017 -21,-10625 -2762,-19054 -8203,-25856 -5441,-6801 -13572,-11975 -29153,-15056 -8718,-1731 -19776,-2803 -34120,-3421l278 -2638c18518,-1772 27628,-4380 36027,-8718 10697,-5524 20229,-13860 26350,-24433 6132,-10573 8842,-23393 8821,-34017 -21,-10625 -2762,-19064 -8203,-25856 -5441,-6801 -13572,-11975 -29153,-15056 -7172,-1422 -15921,-2401 -26783,-3050 1752,-68467 -1113,-138728 -9543,-201939 -11150,-83657 -35460,-170529 -80864,-242407 -34038,-53885 -80586,-99259 -143128,-117303 -58162,-16787 -115448,-5503 -166325,26402 -23939,15015 -46229,36315 -66623,55874 -8491,8151 -18590,18724 -28318,27484 -47177,8399 -172281,10934 -212110,1123 -37408,-27772 -73053,-59780 -112429,-84481 -50876,-31905 -108173,-43189 -166335,-26402 -62542,18044 -109090,63418 -143118,117303 -45404,71878 -69714,158750 -80875,242407 -8419,63212 -11294,133482 -9532,201960 -11263,649 -20332,1628 -27772,3050 -16200,3081 -24640,8244 -30297,15045 -5647,6801 -8502,15231 -8522,25856 -10,10625 2803,23444 9172,34028 6358,10573 16261,18910 27381,24433 8667,4308 18075,6915 37088,8687l289 2679c-14736,618 -26123,1690 -35110,3401 -16200,3092 -24640,8254 -30297,15056 -5647,6801 -8502,15231 -8522,25856 -10,10625 2803,23444 9172,34028 6358,10573 16261,18910 27381,24433 11109,5524 23424,8234 55586,10006l2277 124 567 1968c-21290,505 -36676,1639 -48156,3834 -16200,3081 -24650,8244 -30297,15045 -5647,6801 -8502,15231 -8522,25856 -10,10625 2803,23444 9172,34028 6358,10573 16261,18910 27370,24433 11119,5524 23434,8234 55596,10006zm186409 -10779c7873,-3689 13902,-7997 18590,-13046 6142,-6606 10006,-14479 11820,-22939 1803,-8461 1566,-17529 -1401,-26031 -2968,-8512 -8667,-16457 -17869,-22867 -9213,-6410 -21919,-11274 -53638,-14149 -11738,-1061 -26082,-1855 -41385,-2432l-598 -1453c2721,-72 5359,-155 7883,-247 33646,-1247 48918,-4565 60769,-8904 11841,-4328 20270,-9666 26412,-16272 6142,-6606 10006,-14479 11820,-22939 1803,-8461 1566,-17529 -1401,-26031 -2968,-8512 -8667,-16468 -17869,-22867 -9202,-6410 -21919,-11274 -53628,-14149 -12438,-1134 -27803,-1948 -44127,-2525 6389,-103 12459,-247 18024,-453 33646,-1247 48918,-4565 60769,-8904 11841,-4328 20270,-9666 26412,-16272 6142,-6606 10006,-14479 11820,-22939 1803,-8471 1566,-17529 -1401,-26031 -2968,-8512 -8667,-16468 -17869,-22867 -9202,-6410 -21919,-11274 -53628,-14149 -18302,-1659 -42941,-2659 -67674,-3195 -1577,-63109 680,-130628 8327,-187965 12263,-92004 38376,-157782 66076,-201630 27700,-43848 56977,-65767 85471,-73991 28483,-8223 56184,-2741 84275,14881 28092,17611 91097,69436 114438,86264 44364,31997 287245,20631 313441,1742 23341,-16839 71342,-70394 99434,-88006 28092,-17622 55782,-23104 84275,-14881 28483,8223 57771,30142 85460,73991 27700,43848 53813,109626 66076,201630 7646,57358 9914,124908 8327,188038 -22486,556 -44590,1535 -61254,3102 -30524,2875 -42756,7739 -51608,14149 -8862,6410 -14345,14365 -17199,22867 -2865,8512 -3092,17570 -1350,26031 1742,8471 5451,16334 11367,22939 5915,6606 14025,11954 25433,16282 11397,4328 26103,7646 58482,8893 5348,206 11191,361 17354,453 -15715,577 -30503,1401 -42478,2525 -30524,2875 -42756,7739 -51608,14149 -8862,6410 -14345,14365 -17199,22867 -2865,8512 -3092,17570 -1350,26031 1742,8471 5451,16334 11367,22939 5915,6606 14025,11954 25433,16282 11397,4328 26103,7646 58482,8893l2525 93 -752 1834c-12758,546 -24650,1268 -34594,2205 -30534,2885 -42766,7739 -51618,14149 -8862,6410 -14345,14365 -17199,22867 -2865,8512 -3092,17570 -1350,26031 1742,8471 5462,16334 11367,22939 3566,3978 7914,7492 13304,10614 -25969,17488 -58100,31173 -98435,39943 -89933,19559 -201877,15767 -294912,16158 -93045,-392 -204979,3401 -294922,-16158 -38428,-8357 -69415,-21167 -94714,-37490z"/>
  <rect fill="none" y="-4" width="11823585" height="2294315"/>
 </g>
</svg>
